<mxfile host="app.diagrams.net" modified="2023-01-10T03:52:16.333Z" agent="5.0 (Windows NT 10.0; Win64; x64) AppleWebKit/537.36 (KHTML, like Gecko) Chrome/108.0.0.0 Safari/537.36" version="20.8.3" etag="sWJUBZIiTyb15cZ96bFZ" type="github">
  <diagram id="F0-TLgjnff-trYWFbw_f" name="第 1 页">
    <mxGraphModel dx="972" dy="618" grid="1" gridSize="10" guides="1" tooltips="1" connect="1" arrows="1" fold="1" page="1" pageScale="1" pageWidth="1169" pageHeight="827" math="0" shadow="0">
      <root>
        <mxCell id="0" />
        <mxCell id="1" parent="0" />
        <mxCell id="iMqKd1RsrXkhgSAMZbbe-1" value="ASCG_API&amp;nbsp; SERVER" style="rounded=0;whiteSpace=wrap;html=1;fillColor=#f8cecc;strokeColor=#b85450;" vertex="1" parent="1">
          <mxGeometry x="400" y="90" width="120" height="60" as="geometry" />
        </mxCell>
        <mxCell id="iMqKd1RsrXkhgSAMZbbe-5" style="edgeStyle=orthogonalEdgeStyle;rounded=0;orthogonalLoop=1;jettySize=auto;html=1;exitX=0.5;exitY=0;exitDx=0;exitDy=0;" edge="1" parent="1" source="iMqKd1RsrXkhgSAMZbbe-2" target="iMqKd1RsrXkhgSAMZbbe-1">
          <mxGeometry relative="1" as="geometry" />
        </mxCell>
        <mxCell id="iMqKd1RsrXkhgSAMZbbe-2" value="Agent" style="rounded=0;whiteSpace=wrap;html=1;fillColor=#d5e8d4;strokeColor=#82b366;" vertex="1" parent="1">
          <mxGeometry x="400" y="250" width="120" height="60" as="geometry" />
        </mxCell>
        <mxCell id="iMqKd1RsrXkhgSAMZbbe-4" style="edgeStyle=orthogonalEdgeStyle;rounded=0;orthogonalLoop=1;jettySize=auto;html=1;exitX=0.5;exitY=0;exitDx=0;exitDy=0;entryX=0.5;entryY=1;entryDx=0;entryDy=0;" edge="1" parent="1" source="iMqKd1RsrXkhgSAMZbbe-3" target="iMqKd1RsrXkhgSAMZbbe-2">
          <mxGeometry relative="1" as="geometry" />
        </mxCell>
        <mxCell id="iMqKd1RsrXkhgSAMZbbe-3" value="压测工具运行主机" style="rounded=0;whiteSpace=wrap;html=1;fillColor=#fff2cc;strokeColor=#d6b656;" vertex="1" parent="1">
          <mxGeometry x="400" y="400" width="120" height="60" as="geometry" />
        </mxCell>
        <mxCell id="iMqKd1RsrXkhgSAMZbbe-6" value="发送压测请求" style="text;html=1;strokeColor=none;fillColor=none;align=center;verticalAlign=middle;whiteSpace=wrap;rounded=0;" vertex="1" parent="1">
          <mxGeometry x="470" y="340" width="90" height="20" as="geometry" />
        </mxCell>
        <mxCell id="iMqKd1RsrXkhgSAMZbbe-7" value="流量转发" style="text;html=1;strokeColor=none;fillColor=none;align=center;verticalAlign=middle;whiteSpace=wrap;rounded=0;" vertex="1" parent="1">
          <mxGeometry x="470" y="190" width="90" height="20" as="geometry" />
        </mxCell>
        <mxCell id="iMqKd1RsrXkhgSAMZbbe-8" style="edgeStyle=orthogonalEdgeStyle;rounded=0;orthogonalLoop=1;jettySize=auto;html=1;exitX=0.5;exitY=1;exitDx=0;exitDy=0;" edge="1" parent="1" source="iMqKd1RsrXkhgSAMZbbe-6" target="iMqKd1RsrXkhgSAMZbbe-6">
          <mxGeometry relative="1" as="geometry" />
        </mxCell>
      </root>
    </mxGraphModel>
  </diagram>
</mxfile>
